<svg width="33" height="33" viewBox="0 0 33 33" fill="none" xmlns="http://www.w3.org/2000/svg">
<path d="M22.6666 10.4516C22.6666 13.7233 19.9213 16.4032 16.4999 16.4032C13.0786 16.4032 10.3333 13.7233 10.3333 10.4516C10.3333 7.17996 13.0786 4.5 16.4999 4.5C19.9213 4.5 22.6666 7.17996 22.6666 10.4516Z" stroke="#595959" stroke-linecap="round"/>
<path d="M5.42683 22.139C6.40036 19.9615 8.71432 18.9032 11.0996 18.9032H21.9004C24.2857 18.9032 26.5996 19.9615 27.5732 22.139C28.2201 23.5861 28.8178 25.4486 28.9653 27.581C29.0035 28.132 28.5523 28.5806 28 28.5806H5C4.44772 28.5806 3.99654 28.132 4.03466 27.581C4.18217 25.4486 4.77988 23.5861 5.42683 22.139Z" stroke="#595959" stroke-linecap="round"/>
</svg>
