<svg width="20" height="24" viewBox="0 0 20 24" fill="none" xmlns="http://www.w3.org/2000/svg">
<path d="M3.5 4.5H5.05848C5.7542 4.5 6.10206 4.5 6.36395 4.68876C6.62584 4.87752 6.73584 5.20753 6.95585 5.86754L7.5 7.5" stroke="#595959" stroke-linecap="round"/>
<path d="M12.1787 14.5H9.13758C7.85836 14.5 7.21875 14.5 6.71781 14.1697C6.21687 13.8394 5.96492 13.2515 5.461 12.0757L5.29218 11.6818C4.48269 9.79294 4.07794 8.84853 4.52255 8.17426C4.96715 7.5 5.99464 7.5 8.04962 7.5H13.3305C15.6295 7.5 16.779 7.5 17.2126 8.24711C17.6462 8.99422 17.0758 9.99229 15.9352 11.9884L15.6517 12.4846C15.0897 13.4679 14.8088 13.9596 14.3432 14.2298C13.8776 14.5 13.3113 14.5 12.1787 14.5Z" stroke="#595959" stroke-linecap="round"/>
<path d="M14.5 17.5H5.05091C4.90471 17.5 4.83162 17.5 4.77616 17.4938C4.18857 17.428 3.78605 16.8695 3.90945 16.2913C3.92109 16.2367 3.94421 16.1674 3.99044 16.0287V16.0287C4.04177 15.8747 4.06743 15.7977 4.09579 15.7298C4.38607 15.0342 5.04277 14.5608 5.79448 14.5054C5.8679 14.5 5.94906 14.5 6.11137 14.5H11.5" stroke="#595959" stroke-linecap="round" stroke-linejoin="round"/>
<circle cx="4.5" cy="18.5" r="0.5" stroke="#595959" stroke-linecap="round"/>
<circle cx="12.5" cy="18.5" r="0.5" stroke="#595959" stroke-linecap="round"/>
</svg>
